<svg version="1.1" id="Layer_1" xmlns="http://www.w3.org/2000/svg" xmlns:xlink="http://www.w3.org/1999/xlink" x="0px" y="0px" viewBox="0 0 351.8825 377.7483" enable-background="new 0 0 351.8825 377.7483" xml:space="preserve">
<g>
<circle fill="#716ddb" cx="165" cy="212.7483" r="165" id="id_101"></circle>
<path fill="#e3ac3d" d="M190.6081,99.9268c-7.0264-6.1493-12.984-22.0917-16.3928-38.4509
		c-2.4487,0.7025-4.9554,0.9998-7.0447,0.9998c-2.7881,0-4.8291-0.3613-4.9805-0.3906l0.4297-2.3633
		c0.0604,0.0183,5.9082,1.0138,11.1371-0.5493c-0.6561-3.3984-1.1951-6.7743-1.6107-10.0867l-4.834,0.3235l-0.1562-2.3926
		l4.7046-0.3143c-0.1062-0.9845-0.1947-1.9476-0.2771-2.9108c-2.6379-0.1459-6.3232,0.354-7.8552,0.6372l-0.4395-2.3633
		c0.6-0.1025,4.7192-0.8398,8.1097-0.7074c-0.1422-2.1887-0.235-4.3195-0.2368-6.3306c-1.261-0.5676-2.4609-1.3812-2.746-2.5226
		c-0.5518-2.1924,2.6221-17.915,3.4521-21.0156c0.6268-2.3615,2.1643-3.7085,3.6047-4.5026
		c-0.0958-0.6958-0.1489-1.4508-0.4504-1.8597c-0.3564-0.4834-1.1377-1.123-3.7891-1.123c-7.168,0-13.8232,3.3057-17.373,8.623
		l-0.835,1.2451c-4.5264,6.7334-15.127,22.4951-16.6357,37.168c-0.6738,6.5674,1.3623,18.5254,3.5156,31.1865
		c3.0859,18.1201,6.2744,36.8555,3.0176,46.6309c-0.2051,0.6055-0.6836,1.0791-1.2939,1.2695c-0.6104,0.21-1.2793,0.083-1.792-0.293
		c-0.0244-0.0244-7.9443-4.9561-35.0928,2.793c-26.1523,7.4707-41.1377,20.5713-43.1982,22.4561
		c-0.9521,2.041-6.1621,14.082,1.2109,19.5361c10.3857,7.6709,40.1123,24.1797,50.4004,21.2012
		c5.4675-1.5613,10.2881-3.41,14.3524-5.4498c-0.3387-2.1515-1.0181-7.9376,0.9747-10.5316
		c2.0361-2.6428,10.2307-4.3256,13.2019-4.8596c-0.0366-0.6671-0.1709-1.2079-0.3503-1.5857
		c-1.4404-3.0322-7.0947-5.5664-17.7734-7.9639l-8.3252,1.1865c-0.7617,0.1025-1.5186-0.2344-1.9482-0.8643
		c-0.0879-0.1318-9.0186-13.2275-26.7725-19.9365l1.416-3.7402c13.8489,5.2307,22.5012,13.891,26.3458,18.4448
		c2.0239-10.7422-2.0892-16.3776-2.1368-16.438l1.8994-1.4697c0.2344,0.3021,5.1569,7.0514,2.2284,19.8157l7.088-1.0071
		c0.2441-0.0439,0.4834-0.0293,0.7178,0.0244c3.0072,0.6677,5.614,1.3452,7.9114,2.0465
		c-2.8674-14.1034,1.3336-25.108,1.5369-25.6158l2.2266,0.8887c-0.0458,0.1233-4.3634,11.5582-1.0797,25.6281
		c5.675,2.038,8.8745,4.3304,10.2789,7.2821c1.2793,2.6855,0.9863,5.8203-0.8984,9.585c-1.5253,3.0554-4.1113,5.6732-7.1375,7.9712
		c0.6763,0.4895,1.3416,1.0229,1.9226,1.7749c2.666,3.457,3.7891,9.0137,2.9248,14.502c-0.2509,1.5833-0.7452,3.4479-1.355,5.3992
		l0.5688-0.072c0.0043,0.0336,0.1251,0.6213,0.47,1.5094c1.2427,1.0803,2.6758,2.8888,3.9325,5.7782
		c6.1115,6.2158,20.5853,13.8641,54.7577,11.9458l0.1367,2.3926c-3.8086,0.2197-7.3926,0.3223-10.752,0.3223
		c-23.446,0-36.0852-5.0067-42.9254-10.2075c0.722,7.9999-6.5619,19.3591-10.6976,25.7495l-0.6445,0.9912
		c-0.1202,0.1874-0.3284,0.3607-0.4816,0.5432c0.9534,1.9629,2.7521,7.9852-3.6102,18.8367
		c-4.2493,7.2491-9.5361,10.9064-14.9255,12.9785c8.2227,1.4056,21.2134,3.2806,30.9412,3.0469
		c3.1934-0.083,6.7432-0.2881,10.4346-0.5029c11.72-0.6708,24.5752-1.3635,32.8082,1.2842
		c1.1761-3.9459,5.4193-16.3629,13.5736-21.1768c8.501-5.0244,14.165-23.7793,14.2236-23.9697l2.8711,0.8594
		c-0.2393,0.8154-6.0645,20.0732-15.5713,25.6885c-7.276,4.3018-11.272,16.2854-12.2766,19.6594
		c1.1328,0.567,2.1283,1.2311,2.9553,2.0105c0.376,0.3552,0.9784,0.9998,1.6119,1.6846c1.3428-2.8937,3.9197-7.5043,7.7484-10.1562
		c3.8379-2.6514,6.1475-5.5518,9.6484-9.9414c1.2061-1.5137,2.5439-3.1982,4.126-5.0928l2.3047,1.9238
		c-1.5625,1.875-2.8906,3.54-4.0869,5.0391c-3.5303,4.4336-6.084,7.6367-10.2832,10.542
		c-3.7982,2.6263-6.3013,7.8497-7.2614,10.1306c14.3835,16.2921,59.0686,71.4819,66.377,80.517
		c9.8505-3.504,52.9736-20.3406,81.4447-54.8981c-11.7578-12.5854-104.6466-112.3999-111.0388-132.3804
		C230.4128,166.0303,203.5134,111.2158,190.6081,99.9268z" id="id_102"></path>
<path fill="#ebb13d" d="M58.1667,211.1426c1.2012,9.1797,15.376,14.0381,19.6924,15.3076
		c8.0469,2.3633,41.1572,6.9678,46.7188,3.1689c5.7861-3.9795,11.9727-16.7871,13.2275-24.7363
		c0.6885-4.3701-0.1465-8.8574-2.1387-11.4307c-0.7227-0.9424-1.5381-1.5039-2.2949-1.5771l0.0232-0.2325
		c-6.3843,3.8953-13.9044,6.5308-19.1345,8.0255c-9.8413,2.7728-30.7074-7.5842-43.8647-15.3827
		C65.9164,190.6677,57.3043,204.5306,58.1667,211.1426z" id="id_103"></path>
<path fill="#fac150" d="M140.4763,179.4727c0.3705-0.7404,0.6012-1.3635,0.7953-1.9507
		c-4.3341,0.8472-9.7919,2.3602-10.8832,3.7817c-1.0638,1.3788-0.9711,5.0439-0.6128,7.8363
		C135.0313,186.1823,138.7673,182.8876,140.4763,179.4727z" id="id_104"></path>
<path fill="#fabc41" d="M138.7984,215.3955c-2.7924,6.9037-7.1277,14.2023-11.955,17.5195
		c-2.2217,1.5283-6.8311,2.0996-12.4072,2.0996c-13.8379,0-33.6377-3.5303-37.71-4.7266c-1.5436-0.4547-3.6066-1.1377-5.8533-2.0667
		c-1.6565,3.2721-5.6732,12.24-3.2971,18.4729c2.9883,7.8467,14.1504,10.2148,23.7109,9.8877
		c13.3496-0.5176,37.8467-5.1367,40.6006-9.4287l0.6494-1.001c3.5742-5.5273,11.9482-18.4619,9.8975-24.5996
		C141.2221,217.9041,139.797,216.2378,138.7984,215.3955z" id="id_105"></path>
<path fill="#e6aa33" d="M91.4431,260.5762c-0.7422,0.0293-1.4795,0.0439-2.1973,0.0439c-3.9496,0-7.5189-0.4742-10.7288-1.2891
		c-1.3446,2.7692-4.5331,11.1749,2.9211,17.1338c7.9297,6.3477,10.752,5.8545,16.9385,4.8096
		c1.2988-0.2246,2.7148-0.4639,4.3164-0.6738c10.3418-1.3525,18.75-3.2373,25.0195-13.9258
		c4.5844-7.8235,4.22-12.4292,3.7225-14.2975C121.6189,257.6746,98.1862,260.3192,91.4431,260.5762z" id="id_106"></path>
<path d="M67.2329,226.5527c-1.9495,3.8574-6.3239,13.8849-3.3972,21.5674c1.7072,4.4794,5.5273,7.8491,10.8307,9.9689
		c-2.4774,5.3912-3.999,14.8822,4.2719,21.5009c6.2402,4.9951,10.1221,6.3428,14.0137,6.3428c1.9336,0,3.8721-0.332,6.0986-0.7178
		c1.25-0.2148,2.6172-0.4492,4.1602-0.6494c1.3965-0.1825,2.8558-0.3918,4.3372-0.6311l-0.0403,0.1917
		c0.9717,0.2002,23.9746,4.9658,39.7754,4.5898c3.2275-0.083,6.8213-0.2881,10.5566-0.5029
		c13.4912-0.7764,30.293-1.7383,35.6104,3.2715c7.2705,6.8652,70.1758,84.6973,70.8105,85.4785l3.1152-2.5098
		c-0.1416-0.1752-0.5273-0.6525-0.9967-1.2323c-7.3083-9.035-51.9934-64.2249-66.377-80.517
		c0.9601-2.2809,3.4631-7.5043,7.2614-10.1306c4.1992-2.9053,6.7529-6.1084,10.2832-10.542
		c1.1963-1.499,2.5244-3.1641,4.0869-5.0391l-2.3047-1.9238c-1.582,1.8945-2.9199,3.5791-4.126,5.0928
		c-3.501,4.3896-5.8105,7.29-9.6484,9.9414c-3.8287,2.652-6.4056,7.2626-7.7484,10.1562c-0.6335-0.6848-1.236-1.3293-1.6119-1.6846
		c-0.827-0.7794-1.8225-1.4435-2.9553-2.0105c1.0046-3.374,5.0006-15.3577,12.2766-19.6594
		c9.5068-5.6152,15.332-24.873,15.5713-25.6885l-2.8711-0.8594c-0.0586,0.1904-5.7227,18.9453-14.2236,23.9697
		c-8.1543,4.8138-12.3975,17.2308-13.5736,21.1768c-8.233-2.6477-21.0883-1.955-32.8082-1.2842
		c-3.6914,0.2148-7.2412,0.4199-10.4346,0.5029c-9.7278,0.2338-22.7185-1.6412-30.9412-3.0469
		c5.3894-2.0721,10.6763-5.7294,14.9255-12.9785c6.3623-10.8514,4.5636-16.8738,3.6102-18.8367
		c0.1532-0.1825,0.3613-0.3558,0.4816-0.5432l0.6445-0.9912c4.1357-6.3904,11.4197-17.7496,10.6976-25.7495
		c6.8402,5.2008,19.4794,10.2075,42.9254,10.2075c3.3594,0,6.9434-0.1025,10.752-0.3223l-0.1367-2.3926
		c-34.1724,1.9183-48.6462-5.73-54.7577-11.9458c-1.2567-2.8894-2.6898-4.6979-3.9325-5.7782
		c-0.3448-0.8881-0.4657-1.4758-0.47-1.5094l-0.5688,0.072c0.6097-1.9513,1.1041-3.8159,1.355-5.3992
		c0.8643-5.4883-0.2588-11.0449-2.9248-14.502c-0.5811-0.752-1.2463-1.2854-1.9226-1.7749c3.0261-2.298,5.6122-4.9158,7.1375-7.9712
		c1.8848-3.7646,2.1777-6.8994,0.8984-9.585c-1.4044-2.9517-4.6039-5.2441-10.2789-7.2821
		c-3.2837-14.0698,1.0339-25.5048,1.0797-25.6281l-2.2266-0.8887c-0.2032,0.5078-4.4043,11.5125-1.5369,25.6158
		c-2.2974-0.7013-4.9042-1.3788-7.9114-2.0465c-0.2344-0.0537-0.4736-0.0684-0.7178-0.0244l-7.088,1.0071
		c2.9285-12.7643-1.994-19.5135-2.2284-19.8157l-1.8994,1.4697c0.0476,0.0604,4.1608,5.6958,2.1368,16.438
		c-3.8446-4.5538-12.4969-13.2141-26.3458-18.4448l-1.416,3.7402c17.7539,6.709,26.6846,19.8047,26.7725,19.9365
		c0.4297,0.6299,1.1865,0.9668,1.9482,0.8643l8.3252-1.1865c10.6787,2.3975,16.333,4.9316,17.7734,7.9639
		c0.1794,0.3778,0.3137,0.9186,0.3503,1.5857c-2.9712,0.5341-11.1658,2.2168-13.2019,4.8596
		c-1.9928,2.594-1.3135,8.3801-0.9747,10.5316c-4.0643,2.0398-8.8849,3.8885-14.3524,5.4498
		c-10.2881,2.9785-40.0146-13.5303-50.4004-21.2012c-7.373-5.4541-2.1631-17.4951-1.2109-19.5361
		c2.0605-1.8848,17.0459-14.9854,43.1982-22.4561c27.1484-7.749,35.0684-2.8174,35.0928-2.793
		c0.5127,0.376,1.1816,0.5029,1.792,0.293c0.6104-0.1904,1.0889-0.6641,1.2939-1.2695c3.2568-9.7754,0.0684-28.5107-3.0176-46.6309
		c-2.1533-12.6611-4.1895-24.6191-3.5156-31.1865c1.5088-14.6729,12.1094-30.4346,16.6357-37.168l0.835-1.2451
		c3.5498-5.3174,10.2051-8.623,17.373-8.623c2.6514,0,3.4326,0.6396,3.7891,1.123c0.3015,0.4089,0.3546,1.1639,0.4504,1.8597
		c-1.4404,0.7941-2.9779,2.1411-3.6047,4.5026c-0.8301,3.1006-4.0039,18.8232-3.4521,21.0156c0.285,1.1414,1.485,1.955,2.746,2.5226
		c0.0018,2.0111,0.0946,4.1418,0.2368,6.3306c-3.3905-0.1324-7.5098,0.6049-8.1097,0.7074l0.4395,2.3633
		c1.532-0.2832,5.2173-0.7831,7.8552-0.6372c0.0824,0.9631,0.1709,1.9263,0.2771,2.9108l-4.7046,0.3143l0.1562,2.3926l4.834-0.3235
		c0.4156,3.3124,0.9546,6.6882,1.6107,10.0867c-5.2289,1.5631-11.0767,0.5676-11.1371,0.5493l-0.4297,2.3633
		c0.1514,0.0293,2.1924,0.3906,4.9805,0.3906c2.0892,0,4.5959-0.2972,7.0447-0.9998c3.4088,16.3593,9.3665,32.3016,16.3928,38.4509
		c12.9053,11.2891,39.8047,66.1035,46.1768,86.0156c6.3922,19.9805,99.281,119.7949,111.0388,132.3804
		c0.5286,0.5658,0.954,1.0205,1.1389,1.2183l2.9199-2.7344c-1.0498-1.1182-104.8779-112.0557-111.2891-132.085
		c-6.4355-20.1172-33.5352-75.7178-47.3486-87.8027c-10.0909-8.8293-18.0267-40.954-18.1281-61.4307
		c0.1398-0.1422,0.3906-0.1379,0.4474-0.3418c1.5869-5.8203,6.5771-25.0928,4.1113-28.7158
		c-0.0317-0.047-0.1038-0.0238-0.1416-0.0647c-0.1855-1.4752-0.5981-2.6733-1.2939-3.6169C176.4187,0.2881,173.3669,0,171.2331,0
		c-8.4863,0-16.4209,3.9893-20.7031,10.4102l-0.8252,1.2305c-4.6924,6.9775-15.6836,23.3252-17.29,38.9893
		c-0.7324,7.1143,1.3477,19.3311,3.5498,32.2705c2.6465,15.5469,5.6201,33.0176,3.7207,42.5342
		c-4.3018-1.4014-14.6143-2.7832-36.0449,3.3447c-29.1162,8.3203-44.4873,23.042-45.127,23.6621
		c-0.1514,0.1514-0.2832,0.3271-0.3809,0.5225c-0.3564,0.6885-8.5156,16.9141,2.2461,24.8682
		c1.4215,1.0504,3.7164,2.5891,6.5826,4.3707c-3.7823,5.4059-13.891,20.7904-12.7594,29.4574
		C55.1235,218.7024,61.2411,223.4961,67.2329,226.5527z M127.7126,266.6748c-6.2695,10.6885-14.6777,12.5732-25.0195,13.9258
		c-1.6016,0.21-3.0176,0.4492-4.3164,0.6738c-6.1865,1.0449-9.0088,1.5381-16.9385-4.8096
		c-7.4542-5.9589-4.2657-14.3646-2.9211-17.1338c3.2098,0.8148,6.7792,1.2891,10.7288,1.2891c0.7178,0,1.4551-0.0146,2.1973-0.0439
		c6.7432-0.257,30.1758-2.9016,39.9921-8.1989C131.9326,254.2456,132.297,258.8513,127.7126,266.6748z M132.5368,246.1523
		l-0.6494,1.001c-2.7539,4.292-27.251,8.9111-40.6006,9.4287c-9.5605,0.3271-20.7227-2.041-23.7109-9.8877
		c-2.3761-6.2329,1.6406-15.2008,3.2971-18.4729c2.2467,0.929,4.3097,1.6119,5.8533,2.0667
		c4.0723,1.1963,23.8721,4.7266,37.71,4.7266c5.5762,0,10.1855-0.5713,12.4072-2.0996c4.8273-3.3173,9.1626-10.6158,11.955-17.5195
		c0.9985,0.8423,2.4237,2.5085,3.6359,6.1572C144.4851,227.6904,136.1111,240.625,132.5368,246.1523z M130.3884,181.3037
		c1.0913-1.4215,6.5491-2.9346,10.8832-3.7817c-0.1941,0.5872-0.4248,1.2103-0.7953,1.9507
		c-1.709,3.4149-5.4449,6.7096-10.7007,9.6674C129.4173,186.3477,129.3246,182.6825,130.3884,181.3037z M114.2605,199.668
		c5.2301-1.4948,12.7502-4.1302,19.1345-8.0255l-0.0232,0.2325c0.7568,0.0732,1.5723,0.6348,2.2949,1.5771
		c1.9922,2.5732,2.8271,7.0605,2.1387,11.4307c-1.2549,7.9492-7.4414,20.7568-13.2275,24.7363
		c-5.5615,3.7988-38.6719-0.8057-46.7188-3.1689c-4.3164-1.2695-18.4912-6.1279-19.6924-15.3076
		c-0.8624-6.6119,7.7496-20.4749,12.229-26.8573C83.5531,192.0837,104.4192,202.4408,114.2605,199.668z M177.9323,8.5059
		c0.5469,3.2959-1.665,14.6973-4.375,24.8584c-1.4209-0.4346-2.6611-1.0498-2.8125-1.4209
		c-0.249-1.5234,2.2021-15.1904,3.4375-19.8389C174.7976,9.8047,176.7605,8.8672,177.9323,8.5059z" id="id_107"></path>
<path fill="#edb037" d="M170.7448,31.9434c0.1514,0.3711,1.3916,0.9863,2.8125,1.4209c2.71-10.1611,4.9219-21.5625,4.375-24.8584
		c-1.1719,0.3613-3.1348,1.2988-3.75,3.5986C172.947,16.7529,170.4958,30.4199,170.7448,31.9434z" id="id_108"></path>
</g>
</svg>