<svg width="591" height="203" viewBox="0 0 591 203" fill="none" xmlns="http://www.w3.org/2000/svg">
<path d="M180.882 113.174V106.455H212.539V113.174H200.738V145H192.683V113.174H180.882ZM225.62 128.287V145H217.602V106.455H225.394V121.191H225.733C226.385 119.485 227.439 118.149 228.895 117.183C230.35 116.204 232.176 115.714 234.371 115.714C236.379 115.714 238.129 116.154 239.623 117.032C241.128 117.898 242.295 119.146 243.123 120.777C243.964 122.396 244.378 124.335 244.365 126.593V145H236.348V128.023C236.36 126.242 235.908 124.855 234.993 123.864C234.089 122.873 232.822 122.377 231.191 122.377C230.099 122.377 229.133 122.609 228.292 123.074C227.464 123.538 226.812 124.215 226.335 125.106C225.871 125.984 225.632 127.045 225.62 128.287ZM269.214 132.691V116.091H277.232V145H269.534V139.749H269.233C268.58 141.443 267.495 142.804 265.977 143.833C264.471 144.862 262.633 145.376 260.462 145.376C258.53 145.376 256.83 144.937 255.362 144.059C253.894 143.181 252.745 141.932 251.917 140.314C251.102 138.695 250.688 136.756 250.675 134.498V116.091H258.693V133.067C258.705 134.774 259.163 136.123 260.067 137.114C260.97 138.105 262.181 138.601 263.699 138.601C264.665 138.601 265.569 138.381 266.41 137.942C267.25 137.49 267.928 136.825 268.442 135.947C268.969 135.069 269.226 133.983 269.214 132.691ZM283.645 145V116.091H291.286V121.191H291.625C292.227 119.498 293.231 118.161 294.636 117.183C296.042 116.204 297.723 115.714 299.68 115.714C301.663 115.714 303.35 116.21 304.743 117.201C306.136 118.18 307.065 119.51 307.529 121.191H307.83C308.42 119.535 309.486 118.211 311.029 117.22C312.585 116.216 314.424 115.714 316.544 115.714C319.242 115.714 321.431 116.574 323.113 118.293C324.806 119.999 325.653 122.421 325.653 125.558V145H317.654V127.139C317.654 125.533 317.228 124.328 316.375 123.525C315.521 122.722 314.455 122.321 313.175 122.321C311.72 122.321 310.584 122.785 309.768 123.713C308.953 124.629 308.545 125.84 308.545 127.346V145H300.772V126.969C300.772 125.552 300.364 124.422 299.549 123.582C298.746 122.741 297.685 122.321 296.368 122.321C295.477 122.321 294.674 122.547 293.959 122.998C293.256 123.437 292.698 124.058 292.284 124.862C291.87 125.652 291.663 126.58 291.663 127.647V145H283.645ZM332.137 145V106.455H340.155V120.947H340.4C340.751 120.169 341.259 119.378 341.924 118.575C342.602 117.76 343.48 117.082 344.559 116.543C345.651 115.991 347.006 115.714 348.624 115.714C350.732 115.714 352.677 116.267 354.459 117.371C356.241 118.462 357.665 120.112 358.731 122.321C359.798 124.516 360.331 127.271 360.331 130.583C360.331 133.808 359.81 136.531 358.769 138.751C357.74 140.96 356.335 142.635 354.553 143.777C352.784 144.906 350.801 145.471 348.606 145.471C347.05 145.471 345.726 145.213 344.634 144.699C343.555 144.184 342.671 143.538 341.981 142.76C341.291 141.97 340.764 141.173 340.4 140.37H340.042V145H332.137ZM339.986 130.545C339.986 132.264 340.224 133.764 340.701 135.044C341.178 136.324 341.868 137.321 342.771 138.036C343.675 138.739 344.772 139.09 346.065 139.09C347.37 139.09 348.474 138.733 349.377 138.017C350.281 137.29 350.965 136.286 351.429 135.006C351.906 133.714 352.144 132.227 352.144 130.545C352.144 128.877 351.912 127.409 351.448 126.141C350.983 124.874 350.3 123.883 349.396 123.168C348.493 122.452 347.382 122.095 346.065 122.095C344.76 122.095 343.656 122.44 342.752 123.13C341.861 123.82 341.178 124.799 340.701 126.066C340.224 127.333 339.986 128.826 339.986 130.545ZM399.841 119.949H391.598C391.447 118.883 391.14 117.935 390.675 117.107C390.211 116.267 389.615 115.551 388.887 114.962C388.16 114.372 387.319 113.92 386.365 113.607C385.424 113.293 384.402 113.136 383.297 113.136C381.302 113.136 379.565 113.632 378.084 114.623C376.603 115.602 375.455 117.032 374.64 118.914C373.824 120.784 373.416 123.055 373.416 125.727C373.416 128.475 373.824 130.784 374.64 132.653C375.468 134.523 376.622 135.935 378.103 136.888C379.583 137.842 381.296 138.319 383.241 138.319C384.333 138.319 385.343 138.174 386.271 137.886C387.212 137.597 388.047 137.177 388.774 136.625C389.502 136.06 390.104 135.376 390.581 134.573C391.071 133.77 391.409 132.854 391.598 131.825L399.841 131.863C399.628 133.632 399.095 135.339 398.241 136.982C397.401 138.613 396.265 140.075 394.835 141.368C393.417 142.647 391.723 143.664 389.753 144.417C387.796 145.157 385.581 145.527 383.109 145.527C379.671 145.527 376.597 144.749 373.887 143.193C371.189 141.637 369.056 139.385 367.488 136.436C365.932 133.488 365.154 129.918 365.154 125.727C365.154 121.524 365.945 117.948 367.525 114.999C369.106 112.051 371.252 109.805 373.962 108.261C376.672 106.705 379.722 105.928 383.109 105.928C385.343 105.928 387.413 106.241 389.32 106.869C391.24 107.496 392.94 108.412 394.421 109.616C395.901 110.808 397.106 112.27 398.034 114.002C398.975 115.733 399.578 117.716 399.841 119.949ZM413.778 145.546C411.934 145.546 410.29 145.226 408.847 144.586C407.404 143.933 406.262 142.974 405.422 141.706C404.593 140.426 404.179 138.833 404.179 136.926C404.179 135.32 404.474 133.971 405.064 132.879C405.654 131.788 406.457 130.909 407.473 130.244C408.489 129.579 409.644 129.077 410.936 128.739C412.241 128.4 413.609 128.161 415.039 128.023C416.72 127.848 418.076 127.685 419.104 127.534C420.133 127.371 420.88 127.133 421.344 126.819C421.808 126.505 422.041 126.041 422.041 125.426V125.313C422.041 124.121 421.664 123.199 420.911 122.547C420.171 121.894 419.117 121.568 417.749 121.568C416.306 121.568 415.158 121.888 414.305 122.528C413.452 123.155 412.887 123.946 412.611 124.899L405.196 124.297C405.572 122.54 406.312 121.022 407.417 119.742C408.521 118.45 409.945 117.459 411.689 116.768C413.446 116.066 415.478 115.714 417.787 115.714C419.393 115.714 420.93 115.903 422.398 116.279C423.879 116.656 425.19 117.239 426.332 118.029C427.486 118.82 428.396 119.836 429.061 121.078C429.726 122.308 430.058 123.782 430.058 125.501V145H422.455V140.991H422.229C421.765 141.895 421.143 142.691 420.366 143.381C419.588 144.059 418.653 144.592 417.561 144.981C416.47 145.358 415.209 145.546 413.778 145.546ZM416.074 140.012C417.254 140.012 418.295 139.78 419.199 139.316C420.102 138.839 420.811 138.199 421.325 137.396C421.84 136.593 422.097 135.684 422.097 134.667V131.599C421.846 131.763 421.501 131.913 421.062 132.051C420.635 132.177 420.152 132.296 419.613 132.409C419.073 132.509 418.534 132.603 417.994 132.691C417.455 132.766 416.965 132.835 416.526 132.898C415.585 133.036 414.763 133.256 414.06 133.557C413.358 133.858 412.812 134.266 412.423 134.78C412.034 135.282 411.84 135.909 411.84 136.662C411.84 137.754 412.235 138.588 413.025 139.165C413.828 139.73 414.845 140.012 416.074 140.012ZM444.296 128.287V145H436.279V116.091H443.92V121.191H444.259C444.899 119.51 445.972 118.18 447.477 117.201C448.983 116.21 450.809 115.714 452.954 115.714C454.962 115.714 456.712 116.154 458.205 117.032C459.698 117.91 460.859 119.165 461.687 120.796C462.515 122.415 462.929 124.347 462.929 126.593V145H454.911V128.023C454.924 126.254 454.472 124.874 453.556 123.883C452.64 122.879 451.379 122.377 449.773 122.377C448.694 122.377 447.741 122.609 446.913 123.074C446.097 123.538 445.457 124.215 444.993 125.106C444.541 125.984 444.309 127.045 444.296 128.287ZM482.31 145.565C479.349 145.565 476.802 144.937 474.669 143.683C472.548 142.415 470.917 140.659 469.775 138.413C468.646 136.167 468.081 133.582 468.081 130.658C468.081 127.697 468.652 125.1 469.794 122.866C470.949 120.621 472.586 118.87 474.706 117.615C476.827 116.348 479.349 115.714 482.273 115.714C484.795 115.714 487.003 116.172 488.898 117.088C490.792 118.004 492.292 119.29 493.396 120.947C494.5 122.603 495.108 124.548 495.221 126.781H487.655C487.442 125.338 486.877 124.178 485.961 123.299C485.058 122.408 483.872 121.963 482.404 121.963C481.162 121.963 480.077 122.302 479.148 122.979C478.232 123.644 477.517 124.617 477.003 125.897C476.488 127.176 476.231 128.726 476.231 130.545C476.231 132.39 476.482 133.958 476.984 135.251C477.498 136.543 478.22 137.528 479.148 138.206C480.077 138.883 481.162 139.222 482.404 139.222C483.32 139.222 484.142 139.034 484.87 138.657C485.61 138.281 486.219 137.735 486.695 137.02C487.185 136.292 487.505 135.42 487.655 134.404H495.221C495.096 136.612 494.494 138.557 493.415 140.238C492.348 141.907 490.874 143.212 488.992 144.153C487.11 145.094 484.882 145.565 482.31 145.565ZM513.53 145.565C510.556 145.565 507.996 144.962 505.851 143.758C503.718 142.541 502.074 140.822 500.919 138.601C499.765 136.367 499.188 133.726 499.188 130.677C499.188 127.703 499.765 125.094 500.919 122.848C502.074 120.602 503.699 118.851 505.794 117.597C507.902 116.342 510.374 115.714 513.21 115.714C515.117 115.714 516.892 116.022 518.536 116.637C520.192 117.239 521.635 118.149 522.865 119.366C524.107 120.583 525.073 122.114 525.763 123.958C526.453 125.79 526.798 127.936 526.798 130.395V132.597H502.388V127.628H519.251C519.251 126.474 519 125.451 518.498 124.56C517.996 123.67 517.3 122.973 516.409 122.471C515.531 121.957 514.508 121.7 513.341 121.7C512.124 121.7 511.045 121.982 510.104 122.547C509.176 123.099 508.448 123.845 507.921 124.786C507.394 125.715 507.124 126.75 507.112 127.892V132.616C507.112 134.046 507.375 135.282 507.902 136.324C508.442 137.365 509.201 138.168 510.179 138.733C511.158 139.297 512.319 139.58 513.661 139.58C514.552 139.58 515.368 139.454 516.108 139.203C516.848 138.952 517.482 138.576 518.009 138.074C518.536 137.572 518.937 136.957 519.214 136.229L526.629 136.719C526.253 138.5 525.481 140.056 524.314 141.386C523.16 142.704 521.667 143.733 519.835 144.473C518.015 145.201 515.914 145.565 513.53 145.565ZM532.031 145V116.091H539.804V121.135H540.105C540.632 119.341 541.516 117.986 542.759 117.07C544.001 116.141 545.431 115.677 547.05 115.677C547.451 115.677 547.884 115.702 548.348 115.752C548.813 115.802 549.22 115.871 549.572 115.959V123.074C549.195 122.961 548.675 122.86 548.01 122.772C547.345 122.685 546.736 122.641 546.184 122.641C545.005 122.641 543.951 122.898 543.022 123.412C542.106 123.914 541.378 124.617 540.839 125.52C540.312 126.424 540.048 127.465 540.048 128.645V145H532.031Z" fill="white"/>
<g clip-path="url(#clip0_16_15)">
<path d="M86.7477 203C134.657 203 173.495 163.301 173.495 114.33C173.495 65.3587 134.657 25.6597 86.7477 25.6597C38.8383 25.6597 0 65.3587 0 114.33C0 163.301 38.8383 203 86.7477 203Z" fill="#716DDB"/>
<path d="M100.211 53.7002C96.5169 50.3956 93.3847 41.8282 91.5926 33.0368C90.3052 33.4144 88.9873 33.5741 87.8888 33.5741C86.423 33.5741 85.35 33.38 85.2704 33.3642L85.4963 32.0942C85.528 32.104 88.6025 32.639 91.3516 31.799C91.0066 29.9727 90.7232 28.1585 90.5047 26.3785L87.9633 26.5523L87.8812 25.2665L90.3546 25.0976C90.2988 24.5686 90.2522 24.051 90.2089 23.5334C88.822 23.455 86.8845 23.7236 86.0791 23.8758L85.848 22.6058C86.1635 22.5507 88.3291 22.1545 90.1116 22.2256C90.0369 21.0494 89.9881 19.9044 89.9871 18.8236C89.3242 18.5186 88.6933 18.0814 88.5435 17.468C88.2533 16.2898 89.922 7.84054 90.3584 6.1743C90.6879 4.90524 91.4962 4.18137 92.2535 3.75462C92.2032 3.3807 92.1752 2.97497 92.0167 2.75523C91.8293 2.49545 91.4186 2.15173 90.0246 2.15173C86.2561 2.15173 82.7572 3.9282 80.8909 6.78569L80.4519 7.4548C78.0722 11.0733 72.499 19.5436 71.7058 27.4287C71.3515 30.958 72.422 37.3842 73.5541 44.1882C75.1765 53.9258 76.8528 63.9941 75.1406 69.2474C75.0327 69.5728 74.7812 69.8273 74.4603 69.9296C74.1394 70.0424 73.7877 69.9742 73.5182 69.7721C73.5053 69.759 69.3415 67.1088 55.0684 71.2731C41.319 75.2878 33.4405 82.328 32.3572 83.3409C31.8566 84.4377 29.1175 90.9085 32.9938 93.8395C38.454 97.9618 54.0826 106.834 59.4915 105.233C62.366 104.394 64.9004 103.4 67.0372 102.304C66.8591 101.148 66.5019 98.0386 67.5496 96.6446C68.6201 95.2243 72.9283 94.32 74.4904 94.033C74.4712 93.6746 74.4006 93.3839 74.3063 93.1809C73.549 91.5514 70.5763 90.1895 64.962 88.9011L60.5851 89.5388C60.1846 89.5938 59.7867 89.4128 59.5608 89.0743C59.5146 89.0035 54.8194 81.9659 45.4854 78.3605L46.2298 76.3506C53.5108 79.1615 58.0597 83.8155 60.081 86.2627C61.145 80.4899 58.9826 77.4615 58.9575 77.429L59.9561 76.6392C60.0794 76.8015 62.6674 80.4286 61.1277 87.288L64.8542 86.7468C64.9825 86.7232 65.1083 86.7311 65.2316 86.7599C66.8126 87.1188 68.1831 87.4828 69.3909 87.8597C67.8834 80.2806 70.0921 74.3668 70.1989 74.0939L71.3696 74.5715C71.3455 74.6378 69.0755 80.7828 70.8019 88.3439C73.7855 89.4391 75.4676 90.6711 76.206 92.2573C76.8786 93.7005 76.7245 95.3851 75.7337 97.4082C74.9317 99.0502 73.5722 100.457 71.9812 101.692C72.3367 101.955 72.6865 102.242 72.992 102.646C74.3936 104.503 74.9841 107.49 74.5297 110.439C74.3977 111.29 74.1379 112.292 73.8173 113.341L74.1163 113.302C74.1186 113.32 74.1821 113.636 74.3634 114.113C75.0168 114.694 75.7702 115.665 76.4309 117.218C79.644 120.558 87.2535 124.669 105.219 123.638L105.291 124.924C103.289 125.042 101.405 125.097 99.6385 125.097C87.3119 125.097 80.6669 122.406 77.0707 119.611C77.4503 123.91 73.6208 130.015 71.4465 133.449L71.1077 133.982C71.0445 134.082 70.935 134.175 70.8545 134.274C71.3557 135.328 72.3014 138.565 68.9565 144.396C66.7224 148.292 63.9429 150.257 61.1095 151.371C65.4325 152.126 72.2623 153.134 77.3766 153.008C79.0555 152.964 80.9218 152.853 82.8625 152.738C89.0242 152.377 95.7828 152.005 100.111 153.428C100.73 151.308 102.96 144.635 107.247 142.048C111.717 139.348 114.695 129.269 114.725 129.167L116.235 129.628C116.109 130.067 113.047 140.416 108.048 143.433C104.223 145.745 102.122 152.185 101.594 153.998C102.19 154.303 102.713 154.66 103.148 155.079C103.345 155.269 103.662 155.616 103.995 155.984C104.701 154.429 106.056 151.951 108.069 150.526C110.087 149.101 111.301 147.542 113.141 145.184C113.776 144.37 114.479 143.465 115.311 142.447L116.522 143.481C115.701 144.488 115.003 145.383 114.374 146.189C112.518 148.571 111.175 150.292 108.967 151.854C106.971 153.265 105.655 156.072 105.15 157.298C112.712 166.053 136.205 195.712 140.047 200.567C145.226 198.684 167.898 189.636 182.866 171.065C176.684 164.302 127.849 110.662 124.488 99.9248C121.138 89.2238 106.996 59.7668 100.211 53.7002Z" fill="#E3AC3D"/>
<path d="M30.5808 113.467C31.2123 118.4 38.6646 121.011 40.934 121.693C45.1646 122.963 62.5721 125.438 65.4961 123.396C68.5381 121.258 71.7906 114.375 72.4503 110.103C72.8123 107.754 72.3733 105.343 71.3259 103.96C70.946 103.454 70.5173 103.152 70.1194 103.113L70.1316 102.988C66.7751 105.081 62.8214 106.497 60.0718 107.301C54.8978 108.791 43.9275 103.225 37.0102 99.034C34.6552 102.464 30.1274 109.914 30.5808 113.467Z" fill="#EBB13D"/>
<path d="M73.8545 96.4477C74.0493 96.0498 74.1706 95.715 74.2727 95.3994C71.994 95.8547 69.1246 96.6678 68.5509 97.4317C67.9916 98.1726 68.0404 100.142 68.2287 101.643C70.9919 100.053 72.9561 98.2829 73.8545 96.4477Z" fill="#FAC150"/>
<path d="M72.9724 115.752C71.5043 119.462 69.2251 123.385 66.6871 125.167C65.5191 125.989 63.0957 126.296 60.1641 126.296C52.8889 126.296 42.4793 124.398 40.3383 123.756C39.5268 123.511 38.4422 123.144 37.261 122.645C36.3901 124.403 34.2784 129.223 35.5276 132.572C37.0987 136.789 42.9671 138.062 47.9934 137.886C55.0119 137.608 67.8911 135.125 69.3389 132.819L69.6804 132.281C71.5595 129.311 75.9621 122.36 74.8839 119.061C74.2467 117.101 73.4974 116.205 72.9724 115.752Z" fill="#FABC41"/>
<path d="M48.0756 140.032C47.6854 140.048 47.2978 140.056 46.9204 140.056C44.8439 140.056 42.9674 139.801 41.2798 139.363C40.5729 140.851 38.8966 145.368 42.8156 148.571C46.9845 151.982 48.4683 151.717 51.7209 151.155C52.4037 151.035 53.1481 150.906 53.9902 150.793C59.4273 150.066 63.8479 149.054 67.144 143.31C69.5542 139.105 69.3627 136.63 69.1011 135.626C63.9403 138.473 51.6208 139.894 48.0756 140.032Z" fill="#E6AA33"/>
<path d="M35.3473 121.748C34.3223 123.821 32.0225 129.21 33.5612 133.338C34.4588 135.746 36.4672 137.557 39.2554 138.696C37.9529 141.593 37.1529 146.693 41.5013 150.25C44.7821 152.935 46.8229 153.659 48.8689 153.659C49.8855 153.659 50.9047 153.48 52.0752 153.273C52.7324 153.158 53.4512 153.032 54.2624 152.924C54.9966 152.826 55.7638 152.713 56.5427 152.585L56.5215 152.688C57.0324 152.795 69.126 155.357 77.4332 155.154C79.13 155.11 81.0194 155 82.9832 154.884C90.0761 154.467 98.9096 153.95 101.705 156.642C105.528 160.332 138.6 202.158 138.933 202.578L140.571 201.229C140.497 201.135 140.294 200.879 140.047 200.567C136.205 195.712 112.712 166.053 105.15 157.298C105.655 156.072 106.971 153.265 108.967 151.853C111.175 150.292 112.518 148.571 114.374 146.188C115.003 145.383 115.701 144.488 116.522 143.48L115.311 142.446C114.479 143.464 113.776 144.37 113.142 145.183C111.301 147.542 110.087 149.101 108.069 150.526C106.056 151.951 104.701 154.429 103.995 155.984C103.662 155.616 103.345 155.269 103.148 155.078C102.713 154.659 102.19 154.303 101.594 153.998C102.122 152.185 104.223 145.745 108.048 143.433C113.047 140.415 116.109 130.066 116.235 129.628L114.726 129.166C114.695 129.269 111.717 139.347 107.248 142.047C102.96 144.634 100.73 151.307 100.111 153.428C95.7829 152.005 89.0243 152.377 82.8626 152.738C80.9219 152.853 79.0556 152.963 77.3767 153.008C72.2624 153.134 65.4326 152.126 61.1095 151.371C63.943 150.257 66.7225 148.292 68.9565 144.396C72.3015 138.564 71.3558 135.328 70.8546 134.273C70.9351 134.175 71.0445 134.082 71.1078 133.981L71.4466 133.449C73.6209 130.014 77.4505 123.91 77.0708 119.611C80.667 122.406 87.312 125.096 99.6386 125.096C101.405 125.096 103.289 125.041 105.291 124.923L105.219 123.637C87.2536 124.668 79.6441 120.558 76.431 117.218C75.7703 115.665 75.0168 114.693 74.3635 114.113C74.1822 113.635 74.1187 113.32 74.1164 113.302L73.8173 113.34C74.1379 112.292 74.3978 111.29 74.5297 110.439C74.9841 107.489 74.3937 104.503 72.992 102.645C72.6865 102.241 72.3368 101.955 71.9812 101.692C73.5722 100.457 74.9318 99.0499 75.7337 97.4079C76.7247 95.3849 76.8787 93.7002 76.2061 92.257C75.4677 90.6708 73.7856 89.4388 70.802 88.3436C69.0756 80.7826 71.3456 74.6375 71.3696 74.5712L70.199 74.0936C70.0922 74.3665 67.8835 80.2804 69.391 87.8594C68.1832 87.4826 66.8127 87.1185 65.2316 86.7597C65.1084 86.7308 64.9827 86.7229 64.8543 86.7466L61.1278 87.2878C62.6674 80.4283 60.0795 76.8013 59.9562 76.6389L58.9576 77.4287C58.9827 77.4612 61.1451 80.4896 60.081 86.2624C58.0598 83.8152 53.5109 79.1612 46.2299 76.3503L45.4854 78.3602C54.8194 81.9656 59.5147 89.0032 59.5609 89.074C59.7868 89.4125 60.1847 89.5936 60.5852 89.5385L64.9621 88.9009C70.5764 90.1893 73.5491 91.5511 74.3063 93.1806C74.4007 93.3836 74.4713 93.6743 74.4905 94.0328C72.9284 94.3198 68.6202 95.2241 67.5497 96.6443C66.502 98.0383 66.8591 101.148 67.0373 102.304C64.9005 103.4 62.3661 104.394 59.4916 105.233C54.0827 106.833 38.4541 97.9615 32.9939 93.8392C29.1176 90.9082 31.8566 84.4374 32.3573 83.3406C33.4406 82.3277 41.319 75.2875 55.0684 71.2728C69.3415 67.1085 73.5054 69.7587 73.5183 69.7719C73.7878 69.9739 74.1395 70.0421 74.4604 69.9293C74.7813 69.827 75.0329 69.5724 75.1407 69.2471C76.8529 63.9938 75.1766 53.9256 73.5542 44.1879C72.4221 37.3839 71.3516 30.9577 71.7059 27.4284C72.4991 19.5433 78.0723 11.073 80.452 7.45453L80.891 6.78542C82.7573 3.92787 86.2562 2.15146 90.0247 2.15146C91.4187 2.15146 91.8294 2.49518 92.0168 2.75495C92.1753 2.9747 92.2032 3.38043 92.2536 3.75435C91.4963 4.18109 90.688 4.90496 90.3585 6.17402C89.922 7.84027 88.2534 16.2895 88.5435 17.4677C88.6934 18.0811 89.3243 18.5183 89.9872 18.8233C89.9882 19.9041 90.037 21.0491 90.1117 22.2254C88.3292 22.1542 86.1635 22.5504 85.8481 22.6055L86.0792 23.8755C86.8846 23.7234 88.8221 23.4547 90.209 23.5331C90.2523 24.0507 90.2988 24.5683 90.3547 25.0974L87.8813 25.2663L87.9634 26.552L90.5048 26.3782C90.7233 28.1583 91.0067 29.9724 91.3516 31.7987C88.6026 32.6387 85.5281 32.1038 85.4964 32.0939L85.2705 33.3639C85.3501 33.3797 86.4231 33.5739 87.8889 33.5739C88.9873 33.5739 90.3052 33.4141 91.5926 33.0366C93.3848 41.828 96.517 50.3953 100.211 53.6999C106.996 59.7666 121.138 89.2236 124.488 99.9242C127.849 110.662 176.685 164.301 182.866 171.065C183.144 171.369 183.368 171.613 183.465 171.719L185 170.25C184.448 169.649 129.861 110.032 126.491 99.2682C123.107 88.4574 108.86 58.5779 101.597 52.0835C96.2921 47.3387 92.1199 30.075 92.0666 19.071C92.1401 18.9945 92.2719 18.9969 92.3018 18.8873C93.1361 15.7595 95.7596 5.40254 94.4633 3.45556C94.4466 3.4303 94.4087 3.44277 94.3888 3.42079C94.2913 2.62802 94.0744 1.98417 93.7086 1.47708C92.751 0.154823 91.1465 0 90.0247 0C85.5631 0 81.3915 2.14383 79.1402 5.59439L78.7064 6.25565C76.2394 10.0053 70.4608 18.7905 69.6162 27.2083C69.2312 31.0315 70.3248 37.5967 71.4825 44.5503C72.8739 52.9051 74.4373 62.2938 73.4387 67.408C71.177 66.6549 65.7553 65.9123 54.4883 69.2054C39.1806 73.6767 31.0994 81.588 30.763 81.9213C30.6834 82.0026 30.6142 82.0971 30.5628 82.2021C30.3754 82.5721 26.0858 91.2916 31.7437 95.5661C32.491 96.1306 33.6975 96.9575 35.2044 97.9149C33.2159 100.82 27.9013 109.088 28.4962 113.745C28.9808 117.53 32.1971 120.106 35.3473 121.748ZM67.1441 143.31C63.8479 149.054 59.4274 150.066 53.9902 150.793C53.1482 150.906 52.4038 151.035 51.7209 151.155C48.4684 151.717 46.9846 151.982 42.8156 148.571C38.8966 145.368 40.5729 140.851 41.2799 139.363C42.9674 139.801 44.844 140.056 46.9205 140.056C47.2978 140.056 47.6855 140.048 48.0757 140.032C51.6209 139.894 63.9404 138.473 69.1013 135.626C69.3627 136.63 69.5543 139.105 67.1441 143.31ZM69.6804 132.281L69.339 132.819C67.8911 135.125 55.0119 137.608 47.9935 137.886C42.9671 138.062 37.0986 136.789 35.5276 132.572C34.2784 129.223 36.3901 124.403 37.261 122.645C38.4422 123.144 39.5268 123.511 40.3384 123.756C42.4793 124.399 52.889 126.296 60.1642 126.296C63.0958 126.296 65.5191 125.989 66.6872 125.167C69.2251 123.385 71.5043 119.463 72.9724 115.752C73.4974 116.205 74.2467 117.101 74.884 119.061C75.9621 122.36 71.5595 129.311 69.6804 132.281ZM68.5509 97.4317C69.1246 96.6678 71.994 95.8546 74.2727 95.3994C74.1706 95.715 74.0493 96.0498 73.8545 96.4477C72.956 98.2829 70.9919 100.053 68.2287 101.643C68.0403 100.142 67.9916 98.1726 68.5509 97.4317ZM60.0717 107.301C62.8214 106.497 66.7751 105.081 70.1316 102.988L70.1194 103.113C70.5173 103.152 70.946 103.454 71.3259 103.96C72.3733 105.343 72.8122 107.754 72.4503 110.103C71.7906 114.375 68.538 121.258 65.496 123.396C62.5721 125.438 45.1645 122.963 40.9339 121.693C38.6646 121.011 31.2123 118.4 30.5808 113.467C30.1274 109.914 34.6551 102.464 37.0101 99.034C43.9275 103.225 54.8977 108.791 60.0717 107.301ZM93.5468 4.57103C93.8343 6.34223 92.6714 12.4693 91.2466 17.9298C90.4996 17.6963 89.8476 17.3656 89.768 17.1662C89.6371 16.3476 90.9257 9.00298 91.5752 6.5049C91.8987 5.269 92.9307 4.76519 93.5468 4.57103Z" fill="black"/>
<path d="M89.768 17.1662C89.8476 17.3656 90.4996 17.6963 91.2466 17.9298C92.6714 12.4693 93.8343 6.34223 93.5468 4.57103C92.9307 4.76519 91.8987 5.269 91.5752 6.5049C90.9258 9.00292 89.6371 16.3475 89.768 17.1662Z" fill="#EDB037"/>
</g>
<defs>
<clipPath id="clip0_16_15">
<rect width="185" height="203" fill="white"/>
</clipPath>
</defs>
</svg>
